<?xml version="1.0" encoding="utf-8"?>
<svg xmlns="http://www.w3.org/2000/svg" x="0px" y="0px" viewBox="0 0 256 256">
  <g>
    <g>
      <g>
        <path
          d="M32.6,10.6c-2.5,0.9-11.1,9.2-12.4,11.8c-1,2-1.1,5.1-0.2,6.8c0.9,1.7,204.7,205.6,206.5,206.6c1.9,1,4.9,1,7.1-0.1c1-0.5,3.9-3.1,6.6-5.8c5.5-5.6,6.6-7.9,5.5-11.5c-0.5-1.6-21.3-22.7-102.9-104.3C71.5,42.9,39.9,11.6,38.4,10.9C35.9,9.7,35.3,9.7,32.6,10.6z"/>
        <path
          d="M161,12.1c-2.8,0.9-6.9,4.9-8.7,8.6c-2.4,4.8-3.2,8.5-3.2,14.3v5.1l33.4,33.4l33.3,33.3h4.7c6,0,9.4-0.8,14.2-3c8.2-3.9,11.5-10.6,9-18.2c-0.8-2.4-4-5.8-35.8-37.5c-31.7-31.8-35.1-35-37.5-35.8C167.4,11.3,163.7,11.3,161,12.1z"/>
        <path
          d="M129.5,60.8l-16.1,16.1l32.7,32.7l32.7,32.7l16.2-16.2l16.2-16.2l-32.5-32.5c-18-18-32.7-32.6-32.9-32.6C145.7,44.7,138.4,51.9,129.5,60.8z"/>
        <path
          d="M41.5,86.2c-5.7,1.2-9.4,3.6-16.9,10.9l-6.9,6.7l30.2,30.2l30.2,30.2l-22.4,22.4L33.4,209L22,226.6c-13.1,20.5-12.8,19.9-11.4,19.1c0.6-0.3,9-5.6,18.7-11.8L47,222.6l22.4-22.3l22.4-22.4l30,30l30,30l7-7c7.7-7.7,9.8-10.8,11-16.8c0.7-3.3,0.7-4.9-0.3-15.7l-1.1-12L118.9,137L69.4,87.5l-11.7-1C44.1,85.3,45.8,85.3,41.5,86.2z"/>
      </g>
    </g>
  </g>
</svg>
