<?xml version="1.0" encoding="utf-8"?>
<svg xmlns="http://www.w3.org/2000/svg" x="0px" y="0px" viewBox="0 0 256 256">
  <g>
    <g>
      <g>
        <path fill="#000000"
              d="M162,10.6c-2.9,0.9-6.9,4.9-8.7,8.7c-2.4,4.9-3.2,8.5-3.2,14.4v5.1l33.6,33.6l33.6,33.6h4.7c6,0,9.4-0.8,14.2-3c8.3-3.9,11.6-10.6,9.1-18.3c-0.8-2.4-4-5.8-36-37.8c-31.9-32-35.3-35.2-37.8-36C168.4,9.8,164.7,9.7,162,10.6z"/>
        <path fill="#000000"
              d="M125.3,64.6c-11.6,11.6-21.2,21.4-21.2,21.7c0,0.3,14.7,15.2,32.6,33.2l32.6,32.6l21.6-21.6l21.6-21.6l-32.8-32.8c-18.1-18.1-32.9-32.8-33.1-32.8S136.9,52.9,125.3,64.6z"/>
        <path fill="#000000"
              d="M41.7,85.2c-5.7,1.2-9.5,3.7-17,11l-6.9,6.7l30.4,30.4l30.4,30.4L56,186.2l-22.4,22.6l-11.4,17.8c-13.2,20.6-12.8,20-11.5,19.3c0.6-0.3,9-5.7,18.8-11.9l17.8-11.4l22.6-22.4l22.5-22.5l30.1,30.1c16.5,16.5,30.3,30.1,30.6,30.1c0.4,0,3.6-3,7.1-6.7c5.2-5.3,6.9-7.5,8.4-10.6c3.3-6.7,3.3-7.2,0.7-36.7l-2.3-26.3L132.8,123l-34-34l-26.1-2.3c-14.4-1.2-26.4-2.3-26.9-2.3C45.4,84.4,43.5,84.8,41.7,85.2z"/>
      </g>
    </g>
  </g>
</svg>
